HIERARCHY
ROOT Hips
{
	OFFSET 0.00000 0.00000 0.00000
	CHANNELS 6 Xposition Yposition Zposition Zrotation Yrotation Xrotation 
	JOINT LHipJoint
	{
		OFFSET 0 0 0
		CHANNELS 3 Zrotation Yrotation Xrotation
		JOINT LeftHip
		{
			OFFSET 1.54859 -1.61379 0.86856
			CHANNELS 3 Zrotation Yrotation Xrotation
			JOINT LeftKnee
			{
				OFFSET 2.25087 -6.18423 0.00000
				CHANNELS 3 Zrotation Yrotation Xrotation
				JOINT LeftAnkle
				{
					OFFSET 2.40328 -6.60297 0.00000
					CHANNELS 3 Zrotation Yrotation Xrotation
					JOINT LeftToe
					{
						OFFSET 0.17435 -0.47901 2.02453
						CHANNELS 3 Zrotation Yrotation Xrotation
						End Site
						{
							OFFSET 0.00000 -0.00000 1.04844
						}
					}
				}
			}
		}
	}
	JOINT RHipJoint
	{
		OFFSET 0 0 0
		CHANNELS 3 Zrotation Yrotation Xrotation
		JOINT RightHip
		{
			OFFSET -1.54669 -1.61379 0.86856
			CHANNELS 3 Zrotation Yrotation Xrotation
			JOINT RightKnee
			{
				OFFSET -2.28132 -6.26789 0.00000
				CHANNELS 3 Zrotation Yrotation Xrotation
				JOINT RightAnkle
				{
					OFFSET -2.51636 -6.91365 0.00000
					CHANNELS 3 Zrotation Yrotation Xrotation
					JOINT RightToe
					{
						OFFSET -0.15124 -0.41552 2.21090
						CHANNELS 3 Zrotation Yrotation Xrotation
						End Site
						{
							OFFSET -0.00000 -0.00000 1.13399
						}
					}
				}
			}
		}
	}
	JOINT lowerback
	{
		OFFSET 0 0 0
		CHANNELS 3 Zrotation Yrotation Xrotation
		JOINT Chest
		{
			OFFSET -0.04287 2.26161 -0.25690
			CHANNELS 3 Zrotation Yrotation Xrotation
			JOINT Chest2
			{
				OFFSET 0.02248 2.28395 -0.10140
				CHANNELS 3 Zrotation Yrotation Xrotation
				JOINT lowerneck
				{
					OFFSET 0 0 0
					CHANNELS 3 Zrotation Yrotation Xrotation
					JOINT Neck
					{
						OFFSET -0.11644 1.38496 0.11345
						CHANNELS 3 Zrotation Yrotation Xrotation
						JOINT Head
						{
							OFFSET 0.29383 1.36600 0.06642
							CHANNELS 3 Zrotation Yrotation Xrotation
							End Site
							{
								OFFSET 0.11075 1.41395 -0.00294
							}
						}
					}
				}
				JOINT LeftCollar
				{
					OFFSET 0 0 0
					CHANNELS 3 Zrotation Yrotation Xrotation
					JOINT LeftShoulder
					{
						OFFSET 3.51628 0.59542 -0.30346
CHANNELS 3 Zrotation Xrotation Yrotation
						JOINT LeftElbow
						{
OFFSET 0 -4.764050 0.000000
CHANNELS 3 Zrotation Xrotation Yrotation
							JOINT LeftWrist
							{
OFFSET 0 -3.137590 -0.000000
CHANNELS 3 Zrotation Xrotation Yrotation
								JOINT lhand
								{
									OFFSET 0 0 0
CHANNELS 3 Zrotation Xrotation Yrotation
									JOINT LFingers
									{
OFFSET 0 -0.732260 -0.000000
CHANNELS 3 Zrotation Xrotation Yrotation
										End Site
										{
OFFSET 0 -0.590370 -0.000000
										}
									}
								}
								JOINT LThumb
								{
OFFSET 0 0.000000 0.000000
CHANNELS 3 Zrotation Xrotation Yrotation
									End Site
									{
OFFSET 0 -0.599380 0.599380
									}
								}
							}
						}
					}
				}
				JOINT RightCollar
				{
					OFFSET 0 0 0
					CHANNELS 3 Zrotation Yrotation Xrotation
					JOINT RightShoulder
					{
						OFFSET -3.30990 0.84213 -0.36430
CHANNELS 3 Zrotation Xrotation Yrotation
						JOINT RightElbow
						{
OFFSET 0 -5.101610 -0.000000
CHANNELS 3 Zrotation Xrotation Yrotation
							JOINT RightWrist
							{
OFFSET 0 -3.232670 -0.000000
CHANNELS 3 Zrotation Xrotation Yrotation
								JOINT rhand
								{
									OFFSET 0 0 0
CHANNELS 3 Zrotation Xrotation Yrotation
									JOINT RFingers
									{
OFFSET 0 -0.702000 -0.000000
CHANNELS 3 Zrotation Xrotation Yrotation
										End Site
										{
OFFSET 0 -0.565970 -0.000000
										}
									}
								}
								JOINT RThumb
								{
OFFSET 0 0.000000 0.000000
CHANNELS 3 Zrotation Xrotation Yrotation
									End Site
									{
OFFSET 0 -0.574610 0.574610
									}
								}
							}
						}
					}
				}
			}
		}
	}
}
MOTION
Frames: 12
Frame Time: 0.008333333333333333
32.654800 15.493000 0.254300 173.861000 -65.888900 -176.275000 0.000000 0.000000 0.000000 -19.174600 0.738200 -7.228200 3.130800 10.903800 31.956000 1.487000 8.609500 -27.573600 0.241500 -3.162500 -8.731500 0.000000 0.000000 0.000000 14.744000 1.541700 -9.902900 -3.745900 -11.814300 35.078200 0.017100 -17.859200 -25.147200 -1.566200 7.897100 -22.401900 -4.555800 0.619800 2.196300 0.380500 0.626400 6.624300 2.952500 -0.039900 5.592100 -13.876000 -2.481400 0.521200 17.261300 -2.661000 -10.796100 7.773700 -1.612000 -2.741600 -0.000000 0.000000 0.000000 -7.158900 -7.178600 -14.489600 10.331800 -17.256900 1.572000 17.396000 14.951100 -22.242300 0.000000 0.000000 0.000000 -7.125000 0.000000 0.000000 -11.876300 52.789000 2.302300 -0.000000 0.000000 0.000000 2.431400 -4.979100 9.188100 -14.934700 -24.055100 -3.199300 -17.598000 6.340400 -25.304900 0.000000 0.000000 0.000000 7.125000 0.000000 -0.000000 7.302600 3.781600 6.862000
32.654089 15.491696 0.251811 173.867519 -65.824241 -176.330117 0.000000 0.000000 0.000000 -19.159250 0.843752 -7.187603 3.130030 10.902615 31.952029 1.501816 8.527891 -27.621368 0.229825 -3.085099 -8.515833 0.000000 0.000000 0.000000 14.723079 1.443438 -9.903611 -3.751293 -11.821886 35.104692 -0.039261 -17.547523 -25.204747 -1.521455 7.788111 -22.072621 -4.600486 0.645403 2.299837 0.400591 0.653840 6.611025 2.998134 -0.027276 5.516299 -13.767900 -2.458583 0.415352 17.121493 -2.633205 -10.669568 7.702285 -1.589657 -2.696914 0.000000 0.000000 0.000000 -7.189718 -7.097821 -14.465894 10.365700 -17.309528 1.582016 17.333356 15.127889 -22.383292 0.000000 0.000000 0.000000 -7.125000 0.000000 0.000000 -11.997142 52.919028 2.365003 0.000000 0.000000 0.000000 2.400878 -4.946148 9.213525 -14.938730 -24.060671 -3.200900 -17.591481 6.291565 -25.235441 0.000000 0.000000 0.000000 7.125000 0.000000 0.000000 7.300881 3.853252 6.850562
32.653137 15.490300 0.249192 173.930002 -65.757489 -176.431561 0.000000 0.000000 0.000000 -19.122256 0.936425 -7.147414 3.130482 10.903357 31.954526 1.521080 8.441335 -27.696728 0.215036 -2.983794 -8.233751 0.000000 0.000000 0.000000 14.730492 1.361446 -9.903989 -3.756964 -11.829806 35.132425 -0.094103 -17.249633 -25.270577 -1.476672 7.678010 -21.740489 -4.576404 0.676750 2.365274 0.388457 0.691231 6.617559 2.972221 -0.006926 5.482842 -13.644475 -2.433208 0.300331 17.034147 -2.597533 -10.557120 7.645899 -1.566795 -2.654711 0.000000 0.000000 0.000000 -7.153473 -7.052381 -14.473449 10.391761 -17.349999 1.589734 17.273455 15.265726 -22.505254 0.000000 0.000000 0.000000 -7.125000 0.000000 0.000000 -12.107570 53.030415 2.420312 0.000000 0.000000 0.000000 2.443757 -4.956578 9.198923 -14.934588 -24.054864 -3.199202 -17.608403 6.267321 -25.161460 0.000000 0.000000 0.000000 7.125000 0.000000 0.000000 7.284486 3.925905 6.825059
32.651655 15.488699 0.246288 174.115503 -65.686133 -176.634841 0.000000 0.000000 0.000000 -19.037685 1.000787 -7.108121 3.133623 10.908335 31.971239 1.550120 8.343903 -27.832743 0.193404 -2.829941 -7.805677 0.000000 0.000000 0.000000 14.800188 1.315219 -9.903633 -3.763246 -11.838458 35.162887 -0.145605 -16.982050 -25.354615 -1.431808 7.565465 -21.402083 -4.401156 0.720725 2.346961 0.305485 0.750496 6.667638 2.789032 0.030412 5.542463 -13.487362 -2.402213 0.165147 17.062120 -2.544550 -10.475630 7.622548 -1.542792 -2.617966 0.000000 0.000000 0.000000 -6.969809 -7.084621 -14.549724 10.400592 -17.363749 1.592401 17.219583 15.317939 -22.585381 0.000000 0.000000 0.000000 -7.125000 0.000000 0.000000 -12.195105 53.100822 2.459368 0.000000 0.000000 0.000000 2.647986 -5.062366 9.096335 -14.912482 -24.024046 -3.190253 -17.676855 6.297132 -25.077540 0.000000 0.000000 0.000000 7.125000 0.000000 0.000000 7.235829 4.000757 6.768638
32.649618 15.487173 0.243162 174.240963 -65.619299 -176.768075 0.000000 0.000000 0.000000 -18.976758 1.058960 -7.082837 3.135282 10.910941 31.979983 1.573045 8.261036 -27.935846 0.172291 -2.670454 -7.362667 0.000000 0.000000 0.000000 14.844683 1.274736 -9.928220 -3.771233 -11.849520 35.201726 -0.168161 -16.844182 -25.364938 -1.420596 7.537495 -21.317884 -4.269975 0.757695 2.314157 0.234484 0.801386 6.713233 2.643052 0.061226 5.606606 -13.432280 -2.340937 0.004908 17.126970 -2.452244 -10.328244 7.627253 -1.493810 -2.561801 0.000000 0.000000 0.000000 -6.797449 -7.181312 -14.661948 10.383294 -17.336879 1.587248 17.201253 15.289727 -22.731107 0.000000 0.000000 0.000000 -7.125000 0.000000 0.000000 -12.275524 53.243129 2.519178 0.000000 0.000000 0.000000 2.826235 -5.166932 8.996489 -14.893452 -23.997453 -3.182490 -17.738302 6.325015 -25.028236 0.000000 0.000000 0.000000 7.125000 0.000000 0.000000 7.194288 4.041438 6.723632
32.647247 15.485692 0.239902 174.330454 -65.555174 -176.859344 0.000000 0.000000 0.000000 -18.929998 1.113425 -7.065947 3.136052 10.912127 31.983954 1.592306 8.186895 -28.019232 0.151489 -2.507593 -6.910709 0.000000 0.000000 0.000000 14.874078 1.237695 -9.967750 -3.780242 -11.862025 35.245582 -0.173377 -16.784028 -25.331097 -1.429545 7.560193 -21.385980 -4.165193 0.790469 2.272671 0.170656 0.847257 6.756141 2.519365 0.088133 5.673457 -13.438325 -2.261522 -0.170340 17.213912 -2.336380 -10.141380 7.648767 -1.429863 -2.494002 0.000000 0.000000 0.000000 -6.631862 -7.316615 -14.795711 10.350342 -17.285673 1.577410 17.204216 15.213334 -22.916134 0.000000 0.000000 0.000000 -7.125000 0.000000 0.000000 -12.351680 53.428512 2.591423 0.000000 0.000000 0.000000 2.988918 -5.270765 8.898286 -14.876265 -23.973391 -3.175437 -17.795552 6.351744 -24.999670 0.000000 0.000000 0.000000 7.125000 0.000000 0.000000 7.157010 4.061648 6.685465
32.646544 15.484377 0.237198 174.255391 -65.541416 -176.803848 0.000000 0.000000 0.000000 -18.934383 1.210084 -7.082523 3.137045 10.913701 31.989315 1.593722 8.106861 -27.975590 0.146809 -2.469092 -6.803981 0.000000 0.000000 0.000000 14.841933 1.212496 -9.992771 -3.790640 -11.876476 35.296332 -0.173088 -16.780856 -25.324275 -1.432880 7.568549 -21.411047 -4.179825 0.801284 2.288724 0.135624 0.860718 6.787041 2.491242 0.093024 5.696502 -13.287655 -2.262104 -0.293442 17.098330 -2.336038 -10.058363 7.579497 -1.424844 -2.454054 0.000000 0.000000 0.000000 -6.545938 -7.429014 -14.922524 10.349412 -17.284223 1.577134 17.160704 15.107755 -23.248592 0.000000 0.000000 0.000000 -7.125000 0.000000 0.000000 -12.542246 53.751986 2.733325 0.000000 0.000000 0.000000 3.063321 -5.338852 8.875911 -14.877313 -23.974902 -3.175889 -17.817223 6.341892 -24.988838 0.000000 0.000000 0.000000 7.125000 0.000000 0.000000 7.142859 4.069293 6.671036
32.645862 15.482895 0.234635 174.159055 -65.534848 -176.732267 0.000000 0.000000 0.000000 -18.949026 1.302445 -7.094401 3.138157 10.915450 31.995257 1.595193 8.023094 -27.930077 0.143550 -2.441735 -6.728173 0.000000 0.000000 0.000000 14.800298 1.186533 -10.011469 -3.801338 -11.891308 35.348473 -0.183342 -16.740871 -25.359235 -1.418741 7.531858 -21.301287 -4.213296 0.807854 2.319320 0.109805 0.867848 6.808159 2.482938 0.094248 5.701110 -13.145842 -2.272354 -0.394868 16.972370 -2.351678 -9.969474 7.508643 -1.427373 -2.413747 0.000000 0.000000 0.000000 -6.493494 -7.506692 -14.997008 10.347180 -17.280771 1.576479 17.129886 15.012892 -23.497987 0.000000 0.000000 0.000000 -7.125000 0.000000 0.000000 -12.683434 53.994989 2.839504 0.000000 0.000000 0.000000 3.112130 -5.382186 8.876688 -14.878896 -23.977151 -3.176555 -17.844953 6.316237 -24.989371 0.000000 0.000000 0.000000 7.125000 0.000000 0.000000 7.125956 4.064415 6.655665
32.644914 15.480880 0.232383 174.031634 -65.539826 -176.641591 0.000000 0.000000 0.000000 -18.984229 1.373622 -7.085630 3.139579 10.917643 32.002665 1.600349 7.929337 -27.904060 0.141357 -2.423125 -6.676613 0.000000 0.000000 0.000000 14.742455 1.155952 -10.014136 -3.812658 -11.906894 35.403413 -0.226191 -16.579610 -25.513740 -1.353490 7.363367 -20.797057 -4.279496 0.806076 2.382023 0.105834 0.862455 6.802410 2.515001 0.088855 5.659269 -13.061448 -2.295705 -0.441806 16.855380 -2.392275 -9.842527 7.450978 -1.440826 -2.366868 0.000000 0.000000 0.000000 -6.525378 -7.485119 -14.916466 10.334734 -17.261510 1.572804 17.146184 14.955819 -23.470014 0.000000 0.000000 0.000000 -7.125000 0.000000 0.000000 -12.654454 53.970216 2.825162 0.000000 0.000000 0.000000 3.101877 -5.358599 8.931687 -14.878481 -23.976559 -3.176378 -17.897818 6.250571 -25.020367 0.000000 0.000000 0.000000 7.125000 0.000000 0.000000 7.096264 4.024589 6.632788
32.642697 15.478631 0.229597 173.979339 -65.506240 -176.620698 0.000000 0.000000 0.000000 -19.000268 1.407505 -7.049279 3.140734 10.919468 32.008738 1.615321 7.848333 -27.954169 0.131385 -2.333431 -6.428257 0.000000 0.000000 0.000000 14.712158 1.126607 -10.023447 -3.824411 -11.923049 35.460322 -0.269207 -16.404225 -25.651684 -1.299658 7.221720 -20.374329 -4.326130 0.814015 2.443190 0.119826 0.869916 6.780100 2.555043 0.091642 5.599598 -13.041395 -2.283529 -0.454954 16.786504 -2.382187 -9.765597 7.422494 -1.430974 -2.346033 0.000000 0.000000 0.000000 -6.594392 -7.429924 -14.694422 10.293140 -17.196806 1.560516 17.162048 15.011501 -23.265947 0.000000 0.000000 0.000000 -7.125000 0.000000 0.000000 -12.548511 53.769684 2.739902 0.000000 0.000000 0.000000 3.063877 -5.293008 9.004615 -14.877632 -23.975365 -3.176033 -17.936860 6.167710 -25.055469 0.000000 0.000000 0.000000 7.125000 0.000000 0.000000 7.075387 3.982726 6.618493
32.639497 15.476201 0.226397 173.985265 -65.442767 -176.653886 0.000000 0.000000 0.000000 -19.001453 1.412483 -6.991555 3.141682 10.921009 32.013776 1.637901 7.777215 -28.063277 0.115383 -2.188645 -6.027385 0.000000 0.000000 0.000000 14.703209 1.098219 -10.037908 -3.836502 -11.939643 35.518757 -0.312352 -16.217894 -25.776793 -1.254675 7.100878 -20.014766 -4.357599 0.829483 2.503166 0.147740 0.887340 6.744956 2.601270 0.100769 5.526109 -13.071205 -2.243822 -0.441916 16.754915 -2.332819 -9.727431 7.416627 -1.403060 -2.345381 0.000000 0.000000 0.000000 -6.692180 -7.348671 -14.362713 10.228955 -17.096885 1.541551 17.177575 15.154568 -22.925408 0.000000 0.000000 0.000000 -7.125000 0.000000 0.000000 -12.382924 53.432938 2.599680 0.000000 0.000000 0.000000 3.004375 -5.194864 9.091439 -14.876447 -23.973706 -3.175559 -17.965189 6.071522 -25.093755 0.000000 0.000000 0.000000 7.125000 0.000000 0.000000 7.061341 3.939284 6.610848
32.635829 15.473667 0.223248 174.097109 -65.382201 -176.787280 0.000000 0.000000 0.000000 -18.950303 1.409829 -6.927859 3.142371 10.922083 32.017463 1.660897 7.698775 -28.169892 0.096734 -1.998689 -5.502270 0.000000 0.000000 0.000000 14.739275 1.038263 -10.058910 -3.848540 -11.956134 35.576881 -0.326890 -16.125227 -25.782851 -1.271270 7.145971 -20.148649 -4.326869 0.839344 2.581990 0.173422 0.895627 6.713913 2.609908 0.108494 5.447324 -13.110050 -2.154426 -0.536248 16.725663 -2.210555 -9.628206 7.410033 -1.333921 -2.319963 0.000000 0.000000 0.000000 -6.743344 -7.312952 -14.038896 10.157190 -16.985022 1.520561 17.105930 15.444931 -22.842495 0.000000 0.000000 0.000000 -7.125000 0.000000 0.000000 -12.418266 53.337099 2.577627 0.000000 0.000000 0.000000 2.962941 -5.096098 9.199654 -14.881700 -23.981080 -3.177681 -17.930435 6.006538 -25.096942 0.000000 0.000000 0.000000 7.125000 0.000000 0.000000 7.082808 3.941480 6.630979
